<?xml version="1.0" encoding="utf-8"?>
<!-- Generator: Adobe Illustrator 18.1.1, SVG Export Plug-In . SVG Version: 6.00 Build 0)  -->
<svg version="1.1" id="Layer_1" xmlns="http://www.w3.org/2000/svg" xmlns:xlink="http://www.w3.org/1999/xlink" x="0px" y="0px"
	 viewBox="0 0 100 120" enable-background="new 0 0 100 120" xml:space="preserve">
<g>
	<path fill="#ced4da" d="M29.1,18.8l2.1,5.8c0.2,0.6,1,1,1.6,0.7c0.6-0.2,1-1,0.7-1.6l-2.4-6.6c-0.2-0.5-0.6-0.8-1.2-0.8H20
		c-0.7,0-1.3,0.6-1.3,1.3c0,0.7,0.6,1.3,1.3,1.3H29.1z"/>
	<path fill="#ced4da" d="M80,16.3H70c-0.5,0-1,0.3-1.2,0.8l-2.4,6.6c-0.2,0.6,0.1,1.4,0.7,1.6c0.6,0.2,1.4-0.1,1.6-0.7l2.1-5.8H80
		c0.7,0,1.3-0.6,1.3-1.3C81.2,16.8,80.7,16.3,80,16.3z"/>
	<path fill="#ced4da" d="M31.2,95.5l-2.1,5.8H20c-0.7,0-1.3,0.6-1.3,1.3c0,0.7,0.6,1.3,1.3,1.3h10c0.5,0,1-0.3,1.2-0.8l2.4-6.6
		c0.2-0.6-0.1-1.4-0.7-1.6C32.2,94.5,31.5,94.8,31.2,95.5z"/>
	<path fill="#ced4da" d="M70.9,101.2l-2.1-5.8c-0.2-0.6-1-1-1.6-0.7c-0.6,0.2-1,1-0.7,1.6l2.4,6.6c0.2,0.5,0.6,0.8,1.2,0.8h10
		c0.7,0,1.3-0.6,1.3-1.3c0-0.7-0.6-1.3-1.3-1.3H70.9z"/>
	<path fill="#ced4da" d="M7.5,26.3c4.8,0,8.8-3.9,8.8-8.8s-3.9-8.8-8.8-8.8c-4.8,0-8.8,3.9-8.8,8.8S2.7,26.3,7.5,26.3z M7.5,11.3
		c3.4,0,6.3,2.8,6.3,6.3s-2.8,6.3-6.3,6.3c-3.4,0-6.3-2.8-6.3-6.3S4.1,11.3,7.5,11.3z"/>
	<path fill="#ced4da" d="M92.5,8.8c-4.8,0-8.8,3.9-8.8,8.8s3.9,8.8,8.8,8.8c4.8,0,8.8-3.9,8.8-8.8S97.3,8.8,92.5,8.8z M92.5,23.8
		c-3.4,0-6.3-2.8-6.3-6.3s2.8-6.3,6.3-6.3c3.4,0,6.3,2.8,6.3,6.3S95.9,23.8,92.5,23.8z"/>
	<path fill="#ced4da" d="M7.5,111.3c4.8,0,8.8-3.9,8.8-8.8s-3.9-8.8-8.8-8.8c-4.8,0-8.8,3.9-8.8,8.8S2.7,111.3,7.5,111.3z M7.5,96.3
		c3.4,0,6.3,2.8,6.3,6.3s-2.8,6.3-6.3,6.3c-3.4,0-6.3-2.8-6.3-6.3S4.1,96.3,7.5,96.3z"/>
	<path fill="#ced4da" d="M92.5,93.8c-4.8,0-8.8,3.9-8.8,8.8s3.9,8.8,8.8,8.8c4.8,0,8.8-3.9,8.8-8.8S97.3,93.8,92.5,93.8z
		 M92.5,108.8c-3.4,0-6.3-2.8-6.3-6.3s2.8-6.3,6.3-6.3c3.4,0,6.3,2.8,6.3,6.3S95.9,108.8,92.5,108.8z"/>
	<path fill="#ced4da" d="M50,23.8C30,23.8,13.8,40,13.8,60S30,96.3,50,96.3C70,96.3,86.3,80,86.3,60S70,23.8,50,23.8z M46.9,26.4
		C42.2,30.8,38.5,36,36,41.8c-3.6-1.2-7.1-2.9-10.4-5.2C31.2,30.9,38.6,27.2,46.9,26.4z M24,38.5c3.5,2.4,7.2,4.3,11.1,5.6
		c-1.7,4.6-2.7,9.6-2.8,14.7h-16C16.6,51.1,19.4,44,24,38.5z M24,81.5c-4.6-5.5-7.4-12.6-7.7-20.3h16c0.1,5.1,1.1,10,2.8,14.7
		C31.2,77.2,27.5,79.1,24,81.5z M25.7,83.4c3.3-2.2,6.7-3.9,10.4-5.2c2.5,5.8,6.2,11,10.8,15.4C38.6,92.8,31.2,89.1,25.7,83.4z
		 M48.8,91.9c-4.4-4.1-7.9-9-10.3-14.4c3.4-0.9,6.8-1.4,10.3-1.5V91.9z M48.8,73.4c-3.8,0.1-7.6,0.7-11.2,1.7
		c-1.6-4.4-2.6-9.1-2.7-13.9h13.9V73.4z M48.8,58.8H34.8c0.1-4.8,1.1-9.5,2.7-13.9c3.7,1,7.5,1.6,11.2,1.7V58.8z M48.8,44.1
		c-3.5-0.1-6.9-0.6-10.3-1.5c2.4-5.4,5.9-10.3,10.3-14.4V44.1z M76,38.5c4.6,5.5,7.4,12.6,7.7,20.3h-16c-0.1-5.1-1.1-10-2.8-14.7
		C68.8,42.8,72.5,40.9,76,38.5z M74.3,36.6c-3.3,2.2-6.7,3.9-10.4,5.2c-2.5-5.8-6.2-11-10.8-15.4C61.4,27.2,68.8,30.9,74.3,36.6z
		 M51.3,28.1c4.4,4.1,7.9,9,10.3,14.4c-3.4,0.9-6.8,1.4-10.3,1.5V28.1z M51.3,46.6c3.8-0.1,7.6-0.7,11.2-1.7
		c1.6,4.4,2.6,9.1,2.7,13.9H51.3V46.6z M51.3,61.3h13.9c-0.1,4.8-1.1,9.5-2.7,13.9c-3.7-1-7.5-1.6-11.2-1.7V61.3z M51.3,91.9v-16
		c3.5,0.1,6.9,0.6,10.3,1.5C59.2,82.9,55.7,87.8,51.3,91.9z M53.1,93.6c4.7-4.4,8.4-9.6,10.8-15.4c3.6,1.2,7.1,2.9,10.4,5.2
		C68.8,89.1,61.4,92.8,53.1,93.6z M76,81.5c-3.5-2.4-7.2-4.3-11.1-5.6c1.7-4.6,2.7-9.6,2.8-14.7h16C83.4,68.9,80.6,76,76,81.5z"/>
</g>
</svg>
