<?xml version="1.0" encoding="utf-8"?>
<!-- Generator: Adobe Illustrator 18.1.1, SVG Export Plug-In . SVG Version: 6.00 Build 0)  -->
<svg version="1.1" id="Layer_1" xmlns="http://www.w3.org/2000/svg" xmlns:xlink="http://www.w3.org/1999/xlink" x="0px" y="0px"
	 viewBox="0 0 100 120" enable-background="new 0 0 100 120" xml:space="preserve">
<g>
	<path fill="#da2636" d="M11.3,55c0-3.4-2.8-6.3-6.3-6.3s-6.3,2.8-6.3,6.3s2.8,6.3,6.3,6.3S11.3,58.4,11.3,55z M5,58.8
		c-2.1,0-3.8-1.7-3.8-3.8s1.7-3.8,3.8-3.8s3.8,1.7,3.8,3.8S7.1,58.8,5,58.8z"/>
	<path fill="#da2636" d="M26.3,65c0-3.4-2.8-6.3-6.3-6.3s-6.3,2.8-6.3,6.3c0,3.4,2.8,6.3,6.3,6.3S26.3,68.4,26.3,65z M20,68.8
		c-2.1,0-3.8-1.7-3.8-3.8s1.7-3.8,3.8-3.8s3.8,1.7,3.8,3.8S22.1,68.8,20,68.8z"/>
	<path fill="#da2636" d="M41.3,60c0-3.4-2.8-6.3-6.3-6.3s-6.3,2.8-6.3,6.3s2.8,6.3,6.3,6.3S41.3,63.4,41.3,60z M35,63.8
		c-2.1,0-3.8-1.7-3.8-3.8s1.7-3.8,3.8-3.8s3.8,1.7,3.8,3.8S37.1,63.8,35,63.8z"/>
	<path fill="#da2636" d="M56.3,40c0-3.4-2.8-6.3-6.3-6.3c-3.4,0-6.3,2.8-6.3,6.3s2.8,6.3,6.3,6.3C53.4,46.3,56.3,43.4,56.3,40z
		 M50,43.8c-2.1,0-3.8-1.7-3.8-3.8s1.7-3.8,3.8-3.8c2.1,0,3.8,1.7,3.8,3.8S52.1,43.8,50,43.8z"/>
	<path fill="#da2636" d="M71.3,45c0-3.4-2.8-6.3-6.3-6.3c-3.4,0-6.3,2.8-6.3,6.3s2.8,6.3,6.3,6.3C68.4,51.3,71.3,48.4,71.3,45z
		 M65,48.8c-2.1,0-3.8-1.7-3.8-3.8s1.7-3.8,3.8-3.8c2.1,0,3.8,1.7,3.8,3.8S67.1,48.8,65,48.8z"/>
	<path fill="#da2636" d="M86.3,30c0-3.4-2.8-6.3-6.3-6.3c-3.4,0-6.3,2.8-6.3,6.3s2.8,6.3,6.3,6.3C83.4,36.3,86.3,33.4,86.3,30z
		 M80,33.8c-2.1,0-3.8-1.7-3.8-3.8s1.7-3.8,3.8-3.8c2.1,0,3.8,1.7,3.8,3.8S82.1,33.8,80,33.8z"/>
	<path fill="#da2636" d="M95,8.8c-3.4,0-6.3,2.8-6.3,6.3s2.8,6.3,6.3,6.3c3.4,0,6.3-2.8,6.3-6.3S98.4,8.8,95,8.8z M95,18.8
		c-2.1,0-3.8-1.7-3.8-3.8s1.7-3.8,3.8-3.8c2.1,0,3.8,1.7,3.8,3.8S97.1,18.8,95,18.8z"/>
	<path fill="#da2636" d="M100,108.8H0c-0.7,0-1.3,0.6-1.3,1.3s0.6,1.3,1.3,1.3h100c0.7,0,1.3-0.6,1.3-1.3S100.7,108.8,100,108.8z"/>
	<path fill="#da2636" d="M3.8,65v40c0,0.7,0.6,1.3,1.3,1.3s1.3-0.6,1.3-1.3V65c0-0.7-0.6-1.3-1.3-1.3S3.8,64.3,3.8,65z"/>
	<path fill="#da2636" d="M18.8,75v30c0,0.7,0.6,1.3,1.3,1.3s1.3-0.6,1.3-1.3V75c0-0.7-0.6-1.3-1.3-1.3S18.8,74.3,18.8,75z"/>
	<path fill="#da2636" d="M33.8,70v35c0,0.7,0.6,1.3,1.3,1.3s1.3-0.6,1.3-1.3V70c0-0.7-0.6-1.3-1.3-1.3S33.8,69.3,33.8,70z"/>
	<path fill="#da2636" d="M48.8,50v55c0,0.7,0.6,1.3,1.3,1.3s1.3-0.6,1.3-1.3V50c0-0.7-0.6-1.3-1.3-1.3S48.8,49.3,48.8,50z"/>
	<path fill="#da2636" d="M63.8,55v50c0,0.7,0.6,1.3,1.3,1.3c0.7,0,1.3-0.6,1.3-1.3V55c0-0.7-0.6-1.3-1.3-1.3
		C64.3,53.8,63.8,54.3,63.8,55z"/>
	<path fill="#da2636" d="M78.8,40v65c0,0.7,0.6,1.3,1.3,1.3c0.7,0,1.3-0.6,1.3-1.3V40c0-0.7-0.6-1.3-1.3-1.3
		C79.3,38.8,78.8,39.3,78.8,40z"/>
	<path fill="#da2636" d="M96.3,105V25c0-0.7-0.6-1.3-1.3-1.3c-0.7,0-1.3,0.6-1.3,1.3v80c0,0.7,0.6,1.3,1.3,1.3
		C95.7,106.3,96.3,105.7,96.3,105z"/>
</g>
</svg>
