<?xml version="1.0" encoding="utf-8"?>
<!-- Generator: Adobe Illustrator 18.1.1, SVG Export Plug-In . SVG Version: 6.00 Build 0)  -->
<svg version="1.1" id="Layer_1" xmlns="http://www.w3.org/2000/svg" xmlns:xlink="http://www.w3.org/1999/xlink" x="0px" y="0px"
	 viewBox="0 0 100 120" enable-background="new 0 0 100 120" xml:space="preserve">
<g>
	<path fill="#da2636" d="M20.5,56.5c-0.6-0.3-1.4,0-1.6,0.7l-5,12.3c-0.1,0.3-0.1,0.6,0,0.9C14.7,73,19.2,86.2,25,86.2
		c0.3,0,0.6-0.1,0.9-0.4l11.6-11.3l2.9,2.3l-19.1,28l-4.8,4.1c-0.5,0.5-0.6,1.3-0.1,1.8c0.5,0.5,1.2,0.6,1.8,0.1l4.9-4.3
		c0.1-0.1,0.2-0.2,0.2-0.2l19.8-29.1c0.4-0.5,0.3-1.3-0.2-1.7l-4.7-3.7c-0.5-0.4-1.2-0.4-1.7,0.1l-12,11.7
		c-2.8-0.7-6.4-8.1-8.2-13.6l4.8-11.9C21.4,57.5,21.1,56.8,20.5,56.5z"/>
	<path fill="#da2636" d="M-0.5,81.2C0.3,81.5,1,81,1.2,80.5l9.9-24.8l9.8-10c0.5-0.5,0.5-1.3,0-1.8c-0.5-0.5-1.3-0.5-1.8,0l-10,10.1
		c-0.1,0.1-0.2,0.3-0.3,0.4l-10,25C-1.4,80.2-1.1,80.9-0.5,81.2z"/>
	<path fill="#da2636" d="M75.4,83.7L63.5,72c-0.5-0.4-1.2-0.5-1.7-0.1l-4.7,3.7c-0.5,0.4-0.6,1.1-0.2,1.7l19.8,29.1
		c0.1,0.1,0.1,0.2,0.2,0.2l4.9,4.3c0.6,0.5,1.3,0.4,1.8-0.1c0.5-0.5,0.4-1.3-0.1-1.8l-4.8-4.1l-19.1-28l2.9-2.3l11.6,11.3
		c0.2,0.2,0.5,0.4,0.9,0.4c5.8,0,10.3-13.2,11.2-15.9c0.1-0.3,0.1-0.6,0-0.9l-5-12.3c-0.3-0.6-1-1-1.6-0.7c-0.6,0.3-0.9,1-0.7,1.6
		L83.7,70C81.8,75.6,78.3,83,75.4,83.7z"/>
	<path fill="#da2636" d="M91.2,54.5c-0.1-0.2-0.2-0.3-0.3-0.4L80.9,44c-0.5-0.5-1.3-0.5-1.8,0c-0.5,0.5-0.5,1.3,0,1.8l9.8,10
		l9.9,24.8c0.2,0.5,0.8,1,1.6,0.7c0.6-0.3,1-1,0.7-1.6L91.2,54.5z"/>
	<path fill="#da2636" d="M32.5,97.5c0,0.7,0.6,1.3,1.3,1.3h32.3c0.7,0,1.3-0.6,1.3-1.3s-0.6-1.3-1.3-1.3H55.6c1.2-1.3,1.9-3.1,1.9-5
		c0-1.9-0.7-3.7-1.9-5h2c0.7,0,1.3-0.6,1.3-1.3c0-0.7-0.6-1.2-1.3-1.2H42.3c-0.7,0-1.3,0.6-1.3,1.2c0,0.7,0.6,1.3,1.3,1.3h2.1
		c-1.2,1.3-1.9,3.1-1.9,5c0,1.9,0.7,3.7,1.9,5H33.8C33.1,96.2,32.5,96.8,32.5,97.5z M50,86.2c2.8,0,5,2.2,5,5s-2.2,5-5,5s-5-2.2-5-5
		S47.2,86.2,50,86.2z"/>
	<path fill="#da2636" d="M25,79.2c0.7,0,1.3-0.6,1.3-1.3V21.2h47.5V78c0,0.7,0.6,1.3,1.3,1.3c0.7,0,1.2-0.6,1.2-1.3V12.5
		c0-2.1-1.6-3.7-3.7-3.7h-45c-2.1,0-3.8,1.6-3.8,3.7V78C23.8,78.7,24.3,79.2,25,79.2z M26.3,12.5c0-0.7,0.5-1.3,1.3-1.3h45
		c0.7,0,1.3,0.5,1.3,1.3v6.2H26.3V12.5z"/>
	<path fill="#da2636" d="M55,13.7H45c-0.7,0-1.3,0.6-1.3,1.3s0.6,1.2,1.3,1.2h10c0.7,0,1.3-0.6,1.3-1.2S55.7,13.7,55,13.7z"/>
	<path fill="#da2636" d="M42.5,63.7c-0.7,0-1.3,0.6-1.3,1.3v5.5c0,0.7,0.6,1.3,1.3,1.3c0.7,0,1.2-0.6,1.2-1.3v-4.3h12.5v4.3
		c0,0.7,0.6,1.3,1.3,1.3c0.7,0,1.3-0.6,1.3-1.3V65c0-0.7-0.6-1.3-1.3-1.3h-6.2v-2.6c2.8-0.6,5-3.1,5-6.1v-5c0-3-2.2-5.5-5-6.1v-2.6
		h6.2c0.7,0,1.3-0.6,1.3-1.3V25c0-0.7-0.6-1.2-1.3-1.2h-15c-0.7,0-1.3,0.6-1.3,1.2v15c0,0.7,0.6,1.3,1.3,1.3h6.2v2.6
		c-2.8,0.6-5,3.1-5,6.1v5c0,3,2.2,5.5,5,6.1v2.6H42.5z M43.8,38.7V26.2h12.5v12.5H43.8z M46.3,55v-5c0-1.6,1-3,2.5-3.5V50
		c0,0.7,0.6,1.3,1.3,1.3s1.3-0.6,1.3-1.3v-3.5c1.5,0.5,2.5,1.9,2.5,3.5v5c0,1.6-1,3-2.5,3.5V55c0-0.7-0.6-1.2-1.3-1.2
		s-1.3,0.6-1.3,1.2v3.5C47.3,58,46.3,56.6,46.3,55z"/>
</g>
</svg>
